<?xml version="1.0" encoding="UTF-8"?>
<svg id="Capa_2" data-name="Capa 2" xmlns="http://www.w3.org/2000/svg" viewBox="0 0 96.03 99.24">
  <defs>
    <style>
      .cls-1 {
        fill: #aaff15;
      }
    </style>
  </defs>
  <g id="_2" data-name="2">
    <path class="cls-1" d="M6.36,54.59l6.31,5.96-1.48,6.04-2.09,5.84-1.39,5.74,5.89.19,6.19-.48,6.31.34,2.26,6.99,2.1,6.94,1.78,7.09,5.11-5.38,5.45-4.94,4.94-5.26,6.89.98,7.62,3.14,2.09-7.89,3.36-6.36,5.8-1.76,6.06-1.36,5.62-1.65-2.88-5.09-2.8-5.55-3.72-5.35,4.97-4.94,5.19-4.29,5.07-4.45,5.01-5.01-6.89-.29-6.48-.42-6.38-1.56-6.79.03.34-6.5-.83-6.16-.37-6.24-5.75,2.44-5.94,1.83-5.72,2.02-4.9-5.99-4.21-6.65-4.89-6.6-2.95,7.53-2.31,7.4-2.8,7.31-6.23-1.15-6.19-.42-5.97-.46,1.39,5.84.64,6.18,1.27,6.23-6.8,5.18-7.26,4.75,6.36,6.21ZM19.67,52.96l20.53-12.07-1.7,7.84,26.9-5.24v17.53s-27.1-1.7-27.1-1.7l-.63,9.32-18-15.68Z"/>
  </g>
</svg>