<?xml version="1.0" encoding="UTF-8"?>
<svg id="Capa_2" data-name="Capa 2" xmlns="http://www.w3.org/2000/svg" viewBox="0 0 96.03 99.24">
  <defs>
    <style>
      .cls-1 {
        fill: #aaff15;
      }
    </style>
  </defs>
  <g id="_2" data-name="2">
    <path class="cls-1" d="M96.03,48.38l-7.26-4.75-6.8-5.18,1.27-6.23.64-6.18,1.39-5.84-5.97.46-6.19.42-6.23,1.15-2.8-7.31-2.31-7.4-2.95-7.53-4.89,6.6-4.21,6.65-4.9,5.99-5.72-2.02-5.94-1.83-5.75-2.44-.37,6.24-.83,6.16.34,6.5-6.79-.03-6.38,1.56-6.48.42-6.89.29,5.01,5.01,5.07,4.45,5.19,4.29,4.97,4.94-3.72,5.35-2.8,5.55-2.88,5.09,5.62,1.65,6.06,1.36,5.8,1.76,3.36,6.36,2.09,7.89,7.62-3.14,6.89-.98,4.94,5.26,5.45,4.94,5.11,5.38,1.78-7.09,2.1-6.94,2.26-6.99,6.31-.34,6.19.48,5.89-.19-1.39-5.74-2.09-5.84-1.48-6.04,6.31-5.96,6.36-6.21ZM58.36,68.64l-.63-9.32-27.1,1.7v-17.53l26.9,5.24-1.7-7.84,20.53,12.07-18,15.68Z"/>
  </g>
</svg>